<svg width="94" height="94" viewBox="0 0 94 94" fill="none" xmlns="http://www.w3.org/2000/svg">
<rect width="94" height="94" rx="47" fill="#D8DAFD"/>
<path d="M69.302 37.2587C69.3664 36.7715 69.4 36.2843 69.4 35.7999C69.4 29.1387 63.3996 23.7935 56.7412 24.6979C54.8008 21.2455 51.1048 18.9999 47 18.9999C42.8952 18.9999 39.1992 21.2455 37.2588 24.6979C30.5864 23.7935 24.6 29.1387 24.6 35.7999C24.6 36.2843 24.6336 36.7715 24.698 37.2587C21.2456 39.2019 19 42.8979 19 46.9999C19 51.1019 21.2456 54.7979 24.698 56.7411C24.6334 57.2247 24.6007 57.7121 24.6 58.1999C24.6 64.8611 30.5864 70.1923 37.2588 69.3019C39.1992 72.7543 42.8952 74.9999 47 74.9999C51.1048 74.9999 54.8008 72.7543 56.7412 69.3019C63.3996 70.1923 69.4 64.8611 69.4 58.1999C69.4 57.7155 69.3664 57.2283 69.302 56.7411C72.7544 54.7979 75 51.1019 75 46.9999C75 42.8979 72.7544 39.2019 69.302 37.2587ZM44.074 59.3647L33.8064 48.9655L37.7936 45.0343L44.1132 51.4351L56.2288 39.4119L60.1712 43.3879L44.074 59.3647Z" fill="#3B44F6"/>
</svg>
