<svg width="94" height="94" viewBox="0 0 94 94" fill="none" xmlns="http://www.w3.org/2000/svg">
<rect width="94" height="94" rx="47" fill="#D8DAFD"/>
<path d="M40.8665 28.6945C39.3806 27.9786 37.7508 27.867 36.2669 28.1383L32.9611 28.7465C31.7676 28.9661 30.6419 29.4451 29.6698 30.1467C28.6977 30.8484 27.9048 31.7543 27.3516 32.7955C23.5239 40.0179 20.6301 45.9337 19.5122 50.9776C18.3603 56.1794 19.0623 60.6326 22.528 64.6893C24.8278 67.3816 28.7815 66.837 30.8373 64.5931C32.564 62.702 34.2793 60.8013 35.9829 58.8909C36.5479 58.2563 37.2488 57.7467 38.0375 57.3969C38.8262 57.0472 39.6841 56.8656 40.5525 56.8645H53.4495C55.2033 56.8645 56.8692 57.6035 58.0171 58.889C59.777 60.8577 61.5808 62.863 63.1627 64.5892C65.2185 66.835 69.1722 67.3797 71.472 64.6854C74.9377 60.6306 75.6397 56.1775 74.4878 50.9757C73.3699 45.9317 70.4781 40.0179 66.6484 32.7936C66.0952 31.7524 65.3023 30.8465 64.3302 30.1448C63.3581 29.4431 62.2324 28.9642 61.0389 28.7445L57.7351 28.1364C56.2492 27.8631 54.6194 27.9767 53.1355 28.6945C52.8435 28.8331 52.5495 28.9812 52.2516 29.1333C51.2999 29.6374 50.234 29.9083 49.1478 29.9223H44.8522C43.766 29.9083 42.7001 29.6374 41.7484 29.1333C41.4505 28.9793 41.1565 28.8331 40.8665 28.6926V28.6945ZM47.006 43.3934C46.6121 43.3934 46.222 43.3187 45.858 43.1737C45.4941 43.0286 45.1634 42.816 44.8849 42.5479C44.6063 42.2799 44.3853 41.9616 44.2346 41.6114C44.0838 41.2612 44.0062 40.8858 44.0062 40.5067C44.0062 40.1276 44.0838 39.7523 44.2346 39.402C44.3853 39.0518 44.6063 38.7336 44.8849 38.4655C45.1634 38.1975 45.4941 37.9849 45.858 37.8398C46.222 37.6947 46.6121 37.6201 47.006 37.6201C47.8016 37.6201 48.5646 37.9242 49.1271 38.4655C49.6897 39.0069 50.0058 39.7411 50.0058 40.5067C50.0058 41.2723 49.6897 42.0066 49.1271 42.5479C48.5646 43.0893 47.8016 43.3934 47.006 43.3934Z" fill="#3B44F6"/>
</svg>
