<?xml version="1.0" standalone="no"?>
<!DOCTYPE svg PUBLIC "-//W3C//DTD SVG 20010904//EN"
 "http://www.w3.org/TR/2001/REC-SVG-20010904/DTD/svg10.dtd">
<svg version="1.0" xmlns="http://www.w3.org/2000/svg"
 width="68.000000pt" height="50.000000pt" viewBox="0 0 68.000000 50.000000"
 preserveAspectRatio="xMidYMid meet">
<metadata>
Created by potrace 1.16, written by Peter Selinger 2001-2019
</metadata>
<g transform="translate(0.000000,50.000000) scale(0.100000,-0.100000)"
fill="#000000" stroke="none">
<path d="M10 481 c-14 -27 -13 -37 6 -55 13 -14 57 -16 328 -16 342 0 341 0
334 57 l-3 28 -327 3 c-315 2 -328 2 -338 -17z"/>
<path d="M17 282 c-22 -24 -21 -45 1 -65 16 -15 54 -17 321 -17 189 0 310 4
322 10 26 14 26 66 0 80 -12 6 -133 10 -324 10 -282 0 -305 -1 -320 -18z"/>
<path d="M16 74 c-19 -19 -20 -35 -4 -57 12 -16 41 -17 338 -15 l325 3 3 28
c7 57 8 57 -334 57 -271 0 -315 -2 -328 -16z"/>
</g>
</svg>
