<svg width="36" height="36" viewBox="0 0 36 36" fill="none" xmlns="http://www.w3.org/2000/svg">
<g filter="url(#filter0_b_39_735)">
<rect width="36" height="36" rx="18" fill="white" fill-opacity="0.1"/>
<path d="M17.9975 12.869C15.1581 12.869 12.8665 15.1606 12.8665 18C12.8665 20.8394 15.1581 23.131 17.9975 23.131C20.8369 23.131 23.1285 20.8394 23.1285 18C23.1285 15.1606 20.8369 12.869 17.9975 12.869ZM17.9975 21.3348C16.1613 21.3348 14.6627 19.8362 14.6627 18C14.6627 16.1638 16.1613 14.6652 17.9975 14.6652C19.8337 14.6652 21.3323 16.1638 21.3323 18C21.3323 19.8362 19.8337 21.3348 17.9975 21.3348ZM23.3386 11.4631C22.6757 11.4631 22.1403 11.9984 22.1403 12.6614C22.1403 13.3243 22.6757 13.8597 23.3386 13.8597C24.0016 13.8597 24.5369 13.3268 24.5369 12.6614C24.5371 12.504 24.5063 12.3481 24.4461 12.2026C24.386 12.0571 24.2977 11.9249 24.1864 11.8136C24.0751 11.7023 23.9429 11.614 23.7974 11.5539C23.6519 11.4937 23.496 11.4629 23.3386 11.4631ZM27.9993 18C27.9993 16.6191 28.0118 15.2506 27.9342 13.8722C27.8567 12.2711 27.4914 10.8502 26.3206 9.67938C25.1473 8.50609 23.7289 8.14334 22.1278 8.06579C20.7469 7.98824 19.3784 8.00074 18 8.00074C16.6191 8.00074 15.2506 7.98824 13.8722 8.06579C12.2711 8.14334 10.8502 8.50859 9.67938 9.67938C8.50609 10.8527 8.14334 12.2711 8.06579 13.8722C7.98824 15.2531 8.00074 16.6216 8.00074 18C8.00074 19.3784 7.98824 20.7494 8.06579 22.1278C8.14334 23.7289 8.50859 25.1498 9.67938 26.3206C10.8527 27.4939 12.2711 27.8567 13.8722 27.9342C15.2531 28.0118 16.6216 27.9993 18 27.9993C19.3809 27.9993 20.7494 28.0118 22.1278 27.9342C23.7289 27.8567 25.1498 27.4914 26.3206 26.3206C27.4939 25.1473 27.8567 23.7289 27.9342 22.1278C28.0143 20.7494 27.9993 19.3809 27.9993 18ZM25.7978 23.899C25.6151 24.3543 25.395 24.6945 25.0423 25.0448C24.6895 25.3975 24.3518 25.6176 23.8965 25.8003C22.5806 26.3231 19.456 26.2055 17.9975 26.2055C16.539 26.2055 13.4119 26.3231 12.096 25.8028C11.6407 25.6201 11.3005 25.4 10.9502 25.0473C10.5975 24.6945 10.3774 24.3568 10.1947 23.9015C9.67438 22.5831 9.79195 19.4585 9.79195 18C9.79195 16.5415 9.67438 13.4144 10.1947 12.0985C10.3774 11.6432 10.5975 11.303 10.9502 10.9527C11.303 10.6025 11.6407 10.3799 12.096 10.1972C13.4119 9.67688 16.539 9.79446 17.9975 9.79446C19.456 9.79446 22.5831 9.67688 23.899 10.1972C24.3543 10.3799 24.6945 10.6 25.0448 10.9527C25.3975 11.3055 25.6176 11.6432 25.8003 12.0985C26.3206 13.4144 26.203 16.5415 26.203 18C26.203 19.4585 26.3206 22.5831 25.7978 23.899Z" fill="#A0A0A0"/>
</g>
<defs>
<filter id="filter0_b_39_735" x="-200" y="-200" width="436" height="436" filterUnits="userSpaceOnUse" color-interpolation-filters="sRGB">
<feFlood flood-opacity="0" result="BackgroundImageFix"/>
<feGaussianBlur in="BackgroundImageFix" stdDeviation="100"/>
<feComposite in2="SourceAlpha" operator="in" result="effect1_backgroundBlur_39_735"/>
<feBlend mode="normal" in="SourceGraphic" in2="effect1_backgroundBlur_39_735" result="shape"/>
</filter>
</defs>
</svg>
