<svg width="108" height="23" viewBox="0 0 108 23" fill="none" xmlns="http://www.w3.org/2000/svg">
<path d="M19.4829 9.28193L14.6864 8.59758L12.5422 4.33013C12.4837 4.21329 12.3873 4.1187 12.2683 4.06121C11.9698 3.91655 11.6071 4.0371 11.4579 4.33013L9.3137 8.59758L4.51721 9.28193C4.38497 9.30047 4.26407 9.36167 4.1715 9.45441C4.05959 9.56733 3.99793 9.71924 4.00005 9.87678C4.00218 10.0343 4.06792 10.1846 4.18284 10.2945L7.65316 13.6161L6.83328 18.3064C6.81405 18.4156 6.82635 18.5278 6.86878 18.6304C6.91121 18.733 6.98207 18.8218 7.07333 18.8869C7.16459 18.952 7.27259 18.9906 7.38509 18.9985C7.4976 19.0064 7.6101 18.9831 7.70983 18.9314L12 16.717L16.2902 18.9314C16.4074 18.9926 16.5434 19.013 16.6737 18.9908C17.0024 18.9352 17.2235 18.6291 17.1668 18.3064L16.3469 13.6161L19.8172 10.2945C19.9117 10.2037 19.974 10.085 19.9929 9.95515C20.0439 9.63059 19.8135 9.33015 19.4829 9.28193Z" fill="#EDAB00"/>
<path d="M40.4829 9.28193L35.6864 8.59758L33.5422 4.33013C33.4837 4.21329 33.3873 4.1187 33.2683 4.06121C32.9698 3.91655 32.6071 4.0371 32.4579 4.33013L30.3137 8.59758L25.5172 9.28193C25.385 9.30047 25.2641 9.36167 25.1715 9.45441C25.0596 9.56733 24.9979 9.71924 25.0001 9.87678C25.0022 10.0343 25.0679 10.1846 25.1828 10.2945L28.6532 13.6161L27.8333 18.3064C27.8141 18.4156 27.8264 18.5278 27.8688 18.6304C27.9112 18.733 27.9821 18.8218 28.0733 18.8869C28.1646 18.952 28.2726 18.9906 28.3851 18.9985C28.4976 19.0064 28.6101 18.9831 28.7098 18.9314L33 16.717L37.2902 18.9314C37.4074 18.9926 37.5434 19.013 37.6737 18.9908C38.0024 18.9352 38.2235 18.6291 38.1668 18.3064L37.3469 13.6161L40.8172 10.2945C40.9117 10.2037 40.974 10.085 40.9929 9.95515C41.0439 9.63059 40.8135 9.33015 40.4829 9.28193Z" fill="#EDAB00"/>
<path d="M61.4829 9.28193L56.6864 8.59758L54.5422 4.33013C54.4837 4.21329 54.3873 4.1187 54.2683 4.06121C53.9698 3.91655 53.6071 4.0371 53.4579 4.33013L51.3137 8.59758L46.5172 9.28193C46.385 9.30047 46.2641 9.36167 46.1715 9.45441C46.0596 9.56733 45.9979 9.71924 46.0001 9.87678C46.0022 10.0343 46.0679 10.1846 46.1828 10.2945L49.6532 13.6161L48.8333 18.3064C48.8141 18.4156 48.8264 18.5278 48.8688 18.6304C48.9112 18.733 48.9821 18.8218 49.0733 18.8869C49.1646 18.952 49.2726 18.9906 49.3851 18.9985C49.4976 19.0064 49.6101 18.9831 49.7098 18.9314L54 16.717L58.2902 18.9314C58.4074 18.9926 58.5434 19.013 58.6737 18.9908C59.0024 18.9352 59.2235 18.6291 59.1668 18.3064L58.3469 13.6161L61.8172 10.2945C61.9117 10.2037 61.974 10.085 61.9929 9.95515C62.0439 9.63059 61.8135 9.33015 61.4829 9.28193Z" fill="#EDAB00"/>
<path d="M82.4829 9.28193L77.6864 8.59758L75.5422 4.33013C75.4837 4.21329 75.3873 4.1187 75.2683 4.06121C74.9698 3.91655 74.6071 4.0371 74.4579 4.33013L72.3137 8.59758L67.5172 9.28193C67.385 9.30047 67.2641 9.36167 67.1715 9.45441C67.0596 9.56733 66.9979 9.71924 67.0001 9.87678C67.0022 10.0343 67.0679 10.1846 67.1828 10.2945L70.6532 13.6161L69.8333 18.3064C69.8141 18.4156 69.8264 18.5278 69.8688 18.6304C69.9112 18.733 69.9821 18.8218 70.0733 18.8869C70.1646 18.952 70.2726 18.9906 70.3851 18.9985C70.4976 19.0064 70.6101 18.9831 70.7098 18.9314L75 16.717L79.2902 18.9314C79.4074 18.9926 79.5434 19.013 79.6737 18.9908C80.0024 18.9352 80.2235 18.6291 80.1668 18.3064L79.3469 13.6161L82.8172 10.2945C82.9117 10.2037 82.974 10.085 82.9929 9.95515C83.0439 9.63059 82.8135 9.33015 82.4829 9.28193Z" fill="#EDAB00"/>
<path d="M103.483 9.28193L98.6864 8.59758L96.5422 4.33013C96.4837 4.21329 96.3873 4.1187 96.2683 4.06121C95.9698 3.91655 95.6071 4.0371 95.4579 4.33013L93.3137 8.59758L88.5172 9.28193C88.385 9.30047 88.2641 9.36167 88.1715 9.45441C88.0596 9.56733 87.9979 9.71924 88.0001 9.87678C88.0022 10.0343 88.0679 10.1846 88.1828 10.2945L91.6532 13.6161L90.8333 18.3064C90.8141 18.4156 90.8264 18.5278 90.8688 18.6304C90.9112 18.733 90.9821 18.8218 91.0733 18.8869C91.1646 18.952 91.2726 18.9906 91.3851 18.9985C91.4976 19.0064 91.6101 18.9831 91.7098 18.9314L96 16.717L100.29 18.9314C100.407 18.9926 100.543 19.013 100.674 18.9908C101.002 18.9352 101.223 18.6291 101.167 18.3064L100.347 13.6161L103.817 10.2945C103.912 10.2037 103.974 10.085 103.993 9.95515C104.044 9.63059 103.813 9.33015 103.483 9.28193Z" fill="#EDAB00"/>
</svg>
