<svg width="109" height="24" viewBox="0 0 109 24" fill="none" xmlns="http://www.w3.org/2000/svg">
<path d="M19.9829 9.78193L15.1864 9.09758L13.0422 4.83013C12.9837 4.71329 12.8873 4.6187 12.7683 4.56121C12.4698 4.41655 12.1071 4.5371 11.9579 4.83013L9.8137 9.09758L5.01721 9.78193C4.88497 9.80047 4.76407 9.86167 4.6715 9.95441C4.55959 10.0673 4.49793 10.2192 4.50005 10.3768C4.50218 10.5343 4.56792 10.6846 4.68284 10.7945L8.15316 14.1161L7.33328 18.8064C7.31405 18.9156 7.32635 19.0278 7.36878 19.1304C7.41121 19.233 7.48207 19.3218 7.57333 19.3869C7.66459 19.452 7.77259 19.4906 7.88509 19.4985C7.9976 19.5064 8.1101 19.4831 8.20983 19.4314L12.5 17.217L16.7902 19.4314C16.9074 19.4926 17.0434 19.513 17.1737 19.4908C17.5024 19.4352 17.7235 19.1291 17.6668 18.8064L16.8469 14.1161L20.3172 10.7945C20.4117 10.7037 20.474 10.585 20.4929 10.4551C20.5439 10.1306 20.3135 9.83015 19.9829 9.78193Z" fill="#EDAB00"/>
<path d="M40.9829 9.78193L36.1864 9.09758L34.0422 4.83013C33.9837 4.71329 33.8873 4.6187 33.7683 4.56121C33.4698 4.41655 33.1071 4.5371 32.9579 4.83013L30.8137 9.09758L26.0172 9.78193C25.885 9.80047 25.7641 9.86167 25.6715 9.95441C25.5596 10.0673 25.4979 10.2192 25.5001 10.3768C25.5022 10.5343 25.5679 10.6846 25.6828 10.7945L29.1532 14.1161L28.3333 18.8064C28.3141 18.9156 28.3264 19.0278 28.3688 19.1304C28.4112 19.233 28.4821 19.3218 28.5733 19.3869C28.6646 19.452 28.7726 19.4906 28.8851 19.4985C28.9976 19.5064 29.1101 19.4831 29.2098 19.4314L33.5 17.217L37.7902 19.4314C37.9074 19.4926 38.0434 19.513 38.1737 19.4908C38.5024 19.4352 38.7235 19.1291 38.6668 18.8064L37.8469 14.1161L41.3172 10.7945C41.4117 10.7037 41.474 10.585 41.4929 10.4551C41.5439 10.1306 41.3135 9.83015 40.9829 9.78193Z" fill="#EDAB00"/>
<path d="M61.9829 9.78193L57.1864 9.09758L55.0422 4.83013C54.9837 4.71329 54.8873 4.6187 54.7683 4.56121C54.4698 4.41655 54.1071 4.5371 53.9579 4.83013L51.8137 9.09758L47.0172 9.78193C46.885 9.80047 46.7641 9.86167 46.6715 9.95441C46.5596 10.0673 46.4979 10.2192 46.5001 10.3768C46.5022 10.5343 46.5679 10.6846 46.6828 10.7945L50.1532 14.1161L49.3333 18.8064C49.3141 18.9156 49.3264 19.0278 49.3688 19.1304C49.4112 19.233 49.4821 19.3218 49.5733 19.3869C49.6646 19.452 49.7726 19.4906 49.8851 19.4985C49.9976 19.5064 50.1101 19.4831 50.2098 19.4314L54.5 17.217L58.7902 19.4314C58.9074 19.4926 59.0434 19.513 59.1737 19.4908C59.5024 19.4352 59.7235 19.1291 59.6668 18.8064L58.8469 14.1161L62.3172 10.7945C62.4117 10.7037 62.474 10.585 62.4929 10.4551C62.5439 10.1306 62.3135 9.83015 61.9829 9.78193Z" fill="#EDAB00"/>
<path d="M82.9829 9.78193L78.1864 9.09758L76.0422 4.83013C75.9837 4.71329 75.8873 4.6187 75.7683 4.56121C75.4698 4.41655 75.1071 4.5371 74.9579 4.83013L72.8137 9.09758L68.0172 9.78193C67.885 9.80047 67.7641 9.86167 67.6715 9.95441C67.5596 10.0673 67.4979 10.2192 67.5001 10.3768C67.5022 10.5343 67.5679 10.6846 67.6828 10.7945L71.1532 14.1161L70.3333 18.8064C70.3141 18.9156 70.3264 19.0278 70.3688 19.1304C70.4112 19.233 70.4821 19.3218 70.5733 19.3869C70.6646 19.452 70.7726 19.4906 70.8851 19.4985C70.9976 19.5064 71.1101 19.4831 71.2098 19.4314L75.5 17.217L79.7902 19.4314C79.9074 19.4926 80.0434 19.513 80.1737 19.4908C80.5024 19.4352 80.7235 19.1291 80.6668 18.8064L79.8469 14.1161L83.3172 10.7945C83.4117 10.7037 83.474 10.585 83.4929 10.4551C83.5439 10.1306 83.3135 9.83015 82.9829 9.78193Z" fill="#EDAB00"/>
<path d="M103.983 9.78193L99.1864 9.09758L97.0422 4.83013C96.9837 4.71329 96.8873 4.6187 96.7683 4.56121C96.4698 4.41655 96.1071 4.5371 95.9579 4.83013L93.8137 9.09758L89.0172 9.78193C88.885 9.80047 88.7641 9.86167 88.6715 9.95441C88.5596 10.0673 88.4979 10.2192 88.5001 10.3768C88.5022 10.5343 88.5679 10.6846 88.6828 10.7945L92.1532 14.1161L91.3333 18.8064C91.3141 18.9156 91.3264 19.0278 91.3688 19.1304C91.4112 19.233 91.4821 19.3218 91.5733 19.3869C91.6646 19.452 91.7726 19.4906 91.8851 19.4985C91.9976 19.5064 92.1101 19.4831 92.2098 19.4314L96.5 17.217L100.79 19.4314C100.907 19.4926 101.043 19.513 101.174 19.4908C101.502 19.4352 101.723 19.1291 101.667 18.8064L100.847 14.1161L104.317 10.7945C104.412 10.7037 104.474 10.585 104.493 10.4551C104.544 10.1306 104.313 9.83015 103.983 9.78193Z" fill="#FDE29D"/>
</svg>
