<svg width="36" height="36" viewBox="0 0 36 36" fill="none" xmlns="http://www.w3.org/2000/svg">
<g filter="url(#filter0_b_39_753)">
<rect width="36" height="36" rx="18" fill="white" fill-opacity="0.1"/>
<path d="M28 11.9006C27.2645 12.213 26.4641 12.4379 25.6397 12.5255C26.4956 12.0247 27.1366 11.2336 27.4424 10.3006C26.6392 10.7711 25.7593 11.101 24.8417 11.2757C24.4582 10.872 23.9944 10.5504 23.4792 10.3309C22.9639 10.1114 22.4083 9.99879 21.8469 10C19.5755 10 17.7488 11.813 17.7488 14.0379C17.7488 14.3503 17.7873 14.6627 17.8498 14.9633C14.4487 14.7882 11.4155 13.1882 9.39887 10.7385C9.03143 11.3565 8.83887 12.0602 8.84124 12.7763C8.84124 14.1775 9.56472 15.413 10.6679 16.1397C10.0178 16.1144 9.38287 15.9385 8.81481 15.626V15.6757C8.81481 17.6379 10.2233 19.2639 12.1005 19.6379C11.748 19.728 11.3854 19.7741 11.0213 19.7752C10.7545 19.7752 10.5021 19.7491 10.2473 19.7136C10.7665 21.3136 12.2783 22.4757 14.0786 22.5136C12.6701 23.6 10.9059 24.2391 8.99027 24.2391C8.64656 24.2391 8.32929 24.2272 8 24.1894C9.81709 25.3373 11.9731 26 14.2949 26C21.8325 26 25.957 19.8509 25.957 14.5136C25.957 14.3385 25.957 14.1633 25.945 13.9882C26.7429 13.413 27.4424 12.7006 28 11.9006Z" fill="#A0A0A0"/>
</g>
<defs>
<filter id="filter0_b_39_753" x="-200" y="-200" width="436" height="436" filterUnits="userSpaceOnUse" color-interpolation-filters="sRGB">
<feFlood flood-opacity="0" result="BackgroundImageFix"/>
<feGaussianBlur in="BackgroundImageFix" stdDeviation="100"/>
<feComposite in2="SourceAlpha" operator="in" result="effect1_backgroundBlur_39_753"/>
<feBlend mode="normal" in="SourceGraphic" in2="effect1_backgroundBlur_39_753" result="shape"/>
</filter>
</defs>
</svg>
